<svg xmlns="http://www.w3.org/2000/svg" width="1240" height="1240"><path d="M0 620.001v620.001l620.25-.251 620.25-.251.251-619.75.251-619.75H0v620.001m.497.499c0 341 .114 480.649.253 310.332s.139-449.317 0-620S.497 279.5.497 620.5M171 603.496V1030h175V792.248l-8.531-194.374c-4.691-106.906-8.404-196-8.25-197.988.215-2.768 27.104 70.613 114.781 313.239l114.5 316.853 60.347-.239 60.347-.239L793.774 713C856.793 538.925 908.5 396.313 908.677 396.083c.178-.229.463-.229.633 0 .171.23-3.628 89.517-8.441 198.417l-8.752 198-.059 118.75L892 1030h176V177l-115.25.002-115.25.001-106.436 302.249C611.357 819.183 619.866 795.2 619.2 794.533c-.275-.274-49.63-139.219-109.679-308.766L400.342 177.5l-114.671-.254L171 176.992v426.504" fill="undefined" fill-rule="evenodd"/></svg>