<svg xmlns="http://www.w3.org/2000/svg" width="1240" height="1240"><path d="M0 620.001v620.001l620.25-.251 620.25-.251.251-619.75.251-619.75H0v620.001m.497.499c0 341 .114 480.649.253 310.332s.139-449.317 0-620S.497 279.5.497 620.5m622.351-437.421c-60.121 4.075-119.897 20.648-174.93 48.501-88.485 44.784-155.812 113.301-200.376 203.92-22.752 46.266-35.665 88.546-42.605 139.5-2.695 19.786-3.784 69.042-1.997 90.335 5.602 66.774 25.85 129.408 60.505 187.165 44.219 73.698 108.66 127.239 193.555 160.819 42.855 16.951 85.69 26.848 140 32.347 20.946 2.121 81.017 2.416 101 .496 59.709-5.737 103.912-17.569 147.807-39.565 39.071-19.579 74.981-45.778 110.471-80.597l15.799-15.5-.289-35.295-.288-35.295-8.489 9.795c-4.669 5.387-17.944 19.261-29.5 30.83-54.049 54.111-99.267 82.902-155.429 98.964-46.125 13.192-104.236 15.055-152.441 4.888-58.099-12.254-104.26-43.773-137.512-93.894-35.593-53.651-57.721-132.441-65.296-232.493-1.647-21.755-1.646-83.369.002-102 5.17-58.459 16.357-107.248 35.208-153.558 25.654-63.021 69.041-110.07 128.957-139.843 23.871-11.862 46.617-19.009 74-23.253 14.256-2.209 54.637-2.527 68.5-.54 50.554 7.248 92.947 25.651 132.138 57.364 44.755 36.214 77.633 88.967 95.873 153.83 2.552 9.075 4.817 17.063 5.033 17.75.285.905 3.576 1.25 11.925 1.25H986V182h-11.531c-8.379 0-11.624.342-11.869 1.25-.185.688-1.288 5.701-2.45 11.14-6.517 30.486-27.409 49.301-52.541 47.316-11.751-.929-26.367-5.641-79.36-25.586-70.288-26.454-139.149-37.531-205.401-33.041" fill="undefined" fill-rule="evenodd"/></svg>