<svg width="360" height="391" viewBox="0 0 360 391" fill="none" xmlns="http://www.w3.org/2000/svg">
<g opacity="0.2">
<path d="M752 378.614C752 465.16 548.737 535.319 298 535.319C47.2627 535.319 -156 465.16 -156 378.614C-156 292.068 13.3163 369.493 298 98.3689C524.585 -117.424 752 292.068 752 378.614Z" fill="black" fill-opacity="0.2"/>
<path d="M862.572 327.235C888.162 409.974 714.787 537.085 475.328 611.147C235.868 685.208 21.0038 678.175 -4.58607 595.437C-30.176 512.698 154.418 536.706 346.13 193.421C498.718 -79.8062 836.982 244.497 862.572 327.235Z" fill="black" fill-opacity="0.2"/>
<path d="M921.775 314.566C956.141 394.061 797.489 539.133 567.416 638.593C337.344 738.054 122.974 754.239 88.6083 674.744C54.2427 595.249 240.349 599.203 393.912 237.241C516.136 -50.8509 887.41 235.071 921.775 314.566Z" fill="black" fill-opacity="0.2"/>
<path d="M798.671 353.921C813.932 439.171 626.29 544.085 379.561 588.253C132.833 632.42 -79.5518 599.116 -94.8127 513.866C-110.074 428.617 70.1885 475.057 302.513 157.845C487.424 -94.63 783.41 268.671 798.671 353.921Z" fill="black" fill-opacity="0.2"/>
</g>
</svg>
